<?xml version="1.0" encoding="iso-8859-1"?>
<!-- Generator: Adobe Illustrator 19.0.0, SVG Export Plug-In . SVG Version: 6.00 Build 0)  -->
<svg version="1.1" id="Capa_1" xmlns="http://www.w3.org/2000/svg" xmlns:xlink="http://www.w3.org/1999/xlink" x="0px" y="0px"
	 viewBox="0 0 511.997 511.997" style="enable-background:new 0 0 511.997 511.997;" xml:space="preserve">
<g>
	<g>
		<g>
			<path d="M340.062,196.387c-4.143,0-7.5,3.358-7.5,7.5v14.338c0,4.142,3.357,7.5,7.5,7.5s7.5-3.358,7.5-7.5v-14.338
				C347.561,199.745,344.204,196.387,340.062,196.387z"/>
			<path d="M507.007,262.002c-9.564-18.997-30.733-29.077-51.494-24.509c-3.374,0.746-6.811,1.442-10.216,2.071
				c-4.818,0.889-9.798,1.662-14.867,2.338c1.721-9.53,2.661-19.219,2.809-28.98c0.191,0.003,0.383,0.019,0.574,0.019
				c10.164,0,20.111-3.991,27.459-11.341c7.324-7.323,11.356-17.06,11.356-27.415c0-10.356-4.033-20.094-11.355-27.416
				c-4.056-4.055-10.222-8.423-17.336-12.33c-0.039-1.527-0.213-3.019-0.52-4.465c2.686-1.949,5.012-3.892,6.861-5.742
				c7.324-7.323,11.356-17.06,11.356-27.416c0-10.356-4.033-20.093-11.355-27.415c-7.323-7.324-17.06-11.356-27.416-11.356
				c-10.355,0-20.093,4.033-27.416,11.356c-4.057,4.057-8.425,10.25-12.291,17.274C350.1,52.566,304.581,32.934,255.997,32.934
				c-32.755,0-64.755,9.007-92.542,26.048c-3.531,2.165-4.638,6.784-2.473,10.313c2.165,3.53,6.782,4.638,10.313,2.473
				c25.426-15.594,54.715-23.836,84.7-23.836c47.879,0,92.509,20.829,123.149,56.604c0.13,0.166,0.271,0.325,0.416,0.48
				c1.542,1.815,3.046,3.671,4.515,5.561H127.924c5.235-6.72,10.99-13.037,17.219-18.868c3.024-2.831,3.181-7.577,0.35-10.6
				c-2.831-3.024-7.577-3.181-10.6-0.35c-9.579,8.967-18.14,18.99-25.511,29.818H93.999c-13.501,0-24.486,10.984-24.486,24.486
				c0,10.867,7.119,20.099,16.936,23.29c-5.118,16.742-7.717,34.139-7.717,51.847c0,10.727,0.956,21.325,2.826,31.701
				c-5.068-0.676-10.045-1.448-14.859-2.337c-3.41-0.629-6.846-1.326-10.221-2.072c-20.748-4.567-41.922,5.512-51.488,24.51
				c-5.585,11.09-6.516,23.693-2.623,35.484c1.176,3.563,2.757,6.918,4.687,10.026c-1.571,3.713-2.405,7.708-2.405,11.788
				c0,16.719,13.602,30.32,30.32,30.32c10,0,19.145-4.863,24.748-12.792c1.454,0.367,2.922,0.724,4.414,1.068
				c-18.667,9.711-28.484,30.749-23.89,51.349c4.142,18.566,18.919,32.053,36.489,35.5c4.174,11.926,15.606,20.357,28.627,20.357
				c16.719,0,30.32-13.601,30.32-30.32c0-1.656-0.138-3.291-0.4-4.901c3.568-1.809,7.205-3.767,10.931-5.89
				c-1.121,2.238-2.26,4.462-3.419,6.621c-10.044,18.717-6.118,41.833,9.549,56.212c8.912,8.181,20.178,12.218,31.415,12.217
				c8.406-0.001,16.79-2.273,24.163-6.751c4.074,1.968,8.529,3.01,13.138,3.01c16.719,0,30.321-13.602,30.321-30.321
				c0-7.161-2.488-13.931-6.958-19.315c4.312-8.432,8.112-17.145,11.578-25.917c3.466,8.769,7.267,17.48,11.581,25.914
				c-4.471,5.384-6.96,12.155-6.96,19.318c0,16.719,13.602,30.32,30.32,30.32c4.603,0,9.049-1.039,13.117-3
				c6.628,4.045,14.202,6.378,22.175,6.72c0.682,0.029,1.36,0.044,2.038,0.044c11.663,0,22.741-4.305,31.387-12.24
				c15.667-14.379,19.594-37.495,9.549-56.212c-1.161-2.165-2.299-4.387-3.419-6.621c3.728,2.123,7.365,4.081,10.931,5.89
				c-0.262,1.61-0.4,3.246-0.4,4.902c0,16.719,13.602,30.321,30.32,30.321c13.009,0,24.433-8.416,28.615-20.326
				c5.632-1.096,11.066-3.243,16.054-6.412c10.481-6.659,17.743-17,20.446-29.119c4.595-20.6-5.222-41.638-23.891-51.349
				c1.492-0.344,2.961-0.701,4.415-1.068c5.602,7.93,14.746,12.792,24.748,12.792c16.72,0,30.321-13.602,30.321-30.321
				c0-4.081-0.834-8.077-2.405-11.789c1.93-3.108,3.511-6.464,4.688-10.025C513.523,285.695,512.591,273.093,507.007,262.002z
				 M450.668,157.373c4.49,4.491,6.963,10.46,6.963,16.811c0,6.35-2.473,12.319-6.964,16.81c-4.744,4.744-11.25,7.193-17.827,6.919
				c-0.912-13.33-3.315-26.432-7.172-39.161c5.656-1.482,10.515-4.943,13.801-9.591
				C444.127,151.924,448.147,154.852,450.668,157.373z M406.052,80.005c4.491-4.49,10.461-6.963,16.81-6.963
				c6.351,0,12.319,2.473,16.81,6.963c4.49,4.491,6.963,10.46,6.963,16.81c0,6.351-2.473,12.32-6.964,16.811
				c-1.017,1.017-2.312,2.125-3.808,3.271c-4.344-3.925-10.096-6.319-16.397-6.319h-16.855c-2.785-4.095-5.723-8.048-8.8-11.858
				C397.532,91.004,402.124,83.933,406.052,80.005z M381.566,125.576h17.035c0.005,0,0.01,0.001,0.016,0.001
				c0.005,0,0.009-0.001,0.014-0.001h20.837c5.231,0,9.486,4.256,9.486,9.486c0,0.631-0.065,1.248-0.183,1.845
				c-0.012,0.047-0.019,0.094-0.029,0.141c-0.916,4.281-4.725,7.502-9.274,7.502h-56.875L381.566,125.576z M276.973,125.576h83.38
				L341.38,144.55h-83.38L276.973,125.576z M170.615,125.576h85.147l-18.973,18.974h-85.147L170.615,125.576z M84.512,135.063
				c0-5.231,4.256-9.486,9.486-9.486h19.366c0.005,0,0.009,0.001,0.014,0.001s0.011-0.001,0.016-0.001h36.009l-18.974,18.974h-36.43
				C88.767,144.55,84.512,140.294,84.512,135.063z M34.968,334.622c-7.901,0-14.42-6.011-15.233-13.699
				c1.852,1.299,3.81,2.473,5.867,3.509c5.6,2.82,11.575,5.333,17.951,7.566C41.073,333.673,38.105,334.622,34.968,334.622z
				 M32.348,311.035c-4.164-2.097-7.735-5.026-10.541-8.578c-0.094-0.126-0.187-0.253-0.29-0.374
				c-2.118-2.766-3.784-5.895-4.908-9.299c-2.637-7.987-2.006-16.523,1.776-24.036c6.479-12.87,20.817-19.699,34.861-16.608
				c3.539,0.782,7.149,1.514,10.729,2.175c6.798,1.255,13.882,2.302,21.113,3.147c5.147,18.674,13.372,36.425,24.482,52.668
				c-0.334,0.266-0.669,0.534-0.994,0.79c-6.826,5.384-14.318,10.41-23.442,15.698C64.044,323.387,46.748,318.286,32.348,311.035z
				 M105.356,430.104c-4.527,0-8.664-2.023-11.497-5.241c0.625-0.113,1.25-0.225,1.875-0.364c8.216-1.833,16.389-4.41,24.819-7.853
				C119.628,424.217,113.172,430.104,105.356,430.104z M139.484,390.563c-17.152,9.835-32.092,15.967-47.016,19.296
				c-16.943,3.782-33.809-6.932-37.589-23.879c-3.137-14.063,3.633-28.43,16.464-34.936c3.596-1.824,6.741-3.452,9.614-4.977
				c3.315-1.758,6.434-3.471,9.405-5.159c0.029-0.017,0.059-0.033,0.088-0.05c10.758-6.117,19.463-11.893,27.413-18.164
				c0.227-0.179,0.462-0.367,0.692-0.55c12.731,15.645,27.888,28.895,44.919,39.312c-2.067,6.367-4.245,12.484-6.555,18.397
				C150.934,383.77,145.204,387.298,139.484,390.563z M221.405,460.285c5.346-6.053,10.099-12.571,14.395-19.402
				c0.365,1.319,0.577,2.69,0.577,4.098C236.377,453.312,229.691,460.096,221.405,460.285z M275.618,444.981
				c0-1.411,0.213-2.784,0.58-4.106c4.295,6.828,9.048,13.347,14.395,19.41C282.307,460.098,275.618,453.313,275.618,444.981z
				 M349.514,455.775c-6.197,5.687-14.212,8.617-22.642,8.262c-6.608-0.283-12.813-2.585-17.93-6.565
				c-0.046-0.035-0.092-0.073-0.139-0.107c-1.339-1.054-2.607-2.217-3.781-3.497l-2.75-2.995
				c-15.913-17.804-26.438-40.759-35.082-63.775c23.729-1.49,46.814-7.709,67.97-18.278c4.66,13.99,9.862,26.865,15.826,39.106
				c1.608,3.302,3.292,6.592,5.003,9.779C362.79,430.378,360.127,446.033,349.514,455.775z M406.639,430.104
				c-7.817,0-14.272-5.888-15.196-13.459c8.43,3.444,16.604,6.021,24.819,7.854c0.624,0.139,1.249,0.251,1.875,0.365
				C415.302,428.081,411.165,430.104,406.639,430.104z M457.116,385.981c-1.831,8.209-6.749,15.214-13.849,19.725
				c-4.393,2.791-9.295,4.417-14.339,4.82c-0.133,0.005-0.264,0.015-0.395,0.027c-2.981,0.2-6.008-0.023-9.005-0.693
				c-14.922-3.328-29.862-9.459-47.029-19.303c-5.631-3.215-11.486-6.821-17.424-10.702c-2.315-5.925-4.496-12.055-6.567-18.436
				c0.409-0.25,0.826-0.485,1.233-0.74c16.661-10.399,31.399-23.451,43.696-38.535c0.231,0.184,0.467,0.373,0.695,0.552
				c7.95,6.271,16.652,12.046,27.408,18.162c0.033,0.02,0.068,0.038,0.102,0.058c2.969,1.687,6.086,3.398,9.396,5.154
				c2.894,1.535,6.039,3.162,9.615,4.976C453.483,357.551,460.254,371.918,457.116,385.981z M477.027,334.623
				c-3.137,0-6.106-0.949-8.585-2.625c6.376-2.233,12.351-4.747,17.952-7.566c2.057-1.036,4.016-2.21,5.868-3.509
				C491.448,328.611,484.927,334.623,477.027,334.623z M495.386,292.783c-1.125,3.406-2.79,6.535-4.909,9.3
				c-0.102,0.12-0.193,0.245-0.286,0.37c-2.808,3.554-6.379,6.484-10.544,8.582c-14.401,7.252-31.698,12.353-52.787,15.583
				c-9.123-5.288-16.615-10.314-23.442-15.698c-0.328-0.259-0.666-0.529-1.003-0.797c4.198-6.143,8.035-12.549,11.446-19.211
				c1.889-3.687,0.431-8.206-3.256-10.094c-3.686-1.886-8.206-0.431-10.093,3.256c-4.089,7.982-8.781,15.507-13.978,22.563
				c-0.024,0.028-0.05,0.052-0.073,0.08c-0.221,0.267-0.413,0.548-0.591,0.835c-13.368,17.886-30.101,32.607-49.075,43.485
				c-0.643,0.254-1.231,0.591-1.76,0.992c-23.675,13.181-50.728,20.439-79.038,20.439c-8.267,0-16.568-0.627-24.675-1.863
				c-4.093-0.624-7.919,2.189-8.544,6.284c-0.624,4.095,2.189,7.921,6.284,8.545c5.191,0.791,10.453,1.347,15.738,1.677
				c-8.643,23.01-19.159,45.952-35.012,63.69l-2.815,3.068c-1.191,1.297-2.469,2.465-3.813,3.516
				c-0.014,0.01-0.027,0.021-0.04,0.031c-11.904,9.281-29.157,8.897-40.64-1.64c-10.613-9.741-13.276-25.397-6.475-38.069
				c1.706-3.179,3.389-6.469,5.003-9.78c5.961-12.235,11.162-25.104,15.821-39.088c5.508,2.746,11.166,5.233,16.982,7.412
				c0.867,0.325,1.756,0.479,2.63,0.479c3.037,0,5.895-1.859,7.024-4.871c1.453-3.879-0.513-8.201-4.392-9.654
				c-7.786-2.917-15.281-6.408-22.448-10.423c-0.244-0.164-0.503-0.311-0.769-0.447c-20.691-11.744-38.587-27.921-52.536-47.688
				c-11.719-16.607-20.087-35.006-24.872-54.415c-0.056-0.305-0.127-0.605-0.219-0.898c-2.975-12.372-4.5-25.149-4.5-38.133
				c0-17.344,2.72-34.355,8.071-50.651h308.39c4.768,14.519,7.44,29.606,7.966,44.989c0.001,0.06,0.003,0.12,0.006,0.18
				c0.06,1.824,0.1,3.65,0.1,5.481c0,15.942-2.305,31.689-6.85,46.802c-1.192,3.967,1.057,8.148,5.022,9.341
				c0.721,0.217,1.447,0.32,2.163,0.32c3.224,0,6.203-2.096,7.18-5.342c0.385-1.281,0.75-2.568,1.106-3.857
				c7.235-0.844,14.327-1.893,21.134-3.15c3.576-0.66,7.186-1.392,10.724-2.174c14.047-3.093,28.387,3.737,34.867,16.607
				C497.393,276.26,498.024,284.797,495.386,292.783z"/>
			<path d="M274.482,197.494h-35.205c-7.774,0-14.098,6.325-14.098,14.098v17.022c0,17.19,13.705,31.662,30.552,32.261
				c0.39,0.014,0.777,0.021,1.165,0.021c8.258,0,16.031-3.132,21.996-8.888c6.248-6.03,9.689-14.131,9.689-22.813v-17.603
				C288.581,203.818,282.257,197.494,274.482,197.494z M273.582,229.195c0,4.574-1.814,8.842-5.106,12.02
				c-3.29,3.175-7.63,4.833-12.212,4.671c-8.87-0.315-16.086-8.064-16.086-17.271v-16.122h33.404V229.195z"/>
			<path d="M171.933,196.387c-4.142,0-7.5,3.358-7.5,7.5v14.338c0,4.142,3.358,7.5,7.5,7.5c4.142,0,7.5-3.358,7.5-7.5v-14.338
				C179.433,199.745,176.075,196.387,171.933,196.387z"/>
		</g>
	</g>
</g>
<g>
</g>
<g>
</g>
<g>
</g>
<g>
</g>
<g>
</g>
<g>
</g>
<g>
</g>
<g>
</g>
<g>
</g>
<g>
</g>
<g>
</g>
<g>
</g>
<g>
</g>
<g>
</g>
<g>
</g>
</svg>
